# xmcd CD database file
#
# Track frame offsets:
#	150
#	11762
#	24017
#	34567
#	48257
#	61320
#	72287
#	87692
#	100510
#	125205
#	139817
#	150662
#	169132
#	189895
#	203912
#	217947
#	236170
#	260735
#	285060
#
# Disc length: 4040 seconds
#
# Revision: 5
# Processed by: cddbd v1.5.2PL0 Copyright (c) Steve Scherf et al.
# Submitted via: CDex 2.06
#
DISCID=030fc613
DTITLE=Neil Diamond - The Greatest Hits 1966-1992 [CD1]
DYEAR=1992
DGENRE=Pop
TTITLE0=Solitary Man
TTITLE1=Cherry, Cherry
TTITLE2=I Got The Feelin' (Oh No, No)
TTITLE3=Thank The Lord For The Night Time
TTITLE4=Girl, You'll Be A Woman Soon
TTITLE5=Kentucky Woman
TTITLE6=Shilo
TTITLE7=You Got To Me
TTITLE8=Brooklyn Roads (Live)
TTITLE9=Red, Red Wine (Live)
TTITLE10=I'm A Believer (Live)
TTITLE11=Sweet Caroline (Live)
TTITLE12=Soolaimon (Live)
TTITLE13=Cracklin' Rosie (Live)
TTITLE14=Song Sung Blue (Rerecord)
TTITLE15=Play Me (Rerecord)
TTITLE16=Holly Holy (Live)
TTITLE17=Morningside (Live)
TTITLE18=Crunchy Granola Suite (Live)
EXTD=YEAR: 1992
EXTT0=
EXTT1=
EXTT2=
EXTT3=
EXTT4=
EXTT5=
EXTT6=
EXTT7=
EXTT8=
EXTT9=
EXTT10=
EXTT11=
EXTT12=
EXTT13=
EXTT14=
EXTT15=
EXTT16=
EXTT17=
EXTT18=
PLAYORDER=
